<svg viewBox="0 0 1440 1024" xmlns="http://www.w3.org/2000/svg"><defs><filter id="bg-home" x="-300" y="-300" width="2040" height="1624" filterUnits="userSpaceOnUse" color-interpolation-filters="sRGB"><feGaussianBlur stdDeviation="80"/></filter></defs><g fill-rule="evenodd" filter="url(#bg-home)" opacity="0.2"><path d="m1329.5-478.4c53 103.9-14.5 226.9-21.7 343.4-7.1 117.2 65.9 266.3-20.7 345.6-94.3 86.4-250.8-3.5-376.8 18.3-82.5 14.2-151 62.7-231.2 86.7-119.1 35.7-236.9 126.5-355.6 89.3-116.4-36.5-239.5-152.2-233.1-274.1 7.8-143.2 261.7-185.9 265.3-329.3 3.9-153.8-290.9-232.9-247.2-380.5 36.7-123.9 247.7-64.5 376.7-56.9 90.9 5.3 160.3 98.5 251.2 94.2 110.3-5.3 192.6-132.7 302.3-120.9 116.1 12.3 237.8 80.2 290.8 184.2z" fill="#76a5d3"/><path d="m335.6 1463c-147.7-89.1-235.8-231.2-244.4-373.4-10-152.4 64.7-304.3 208.7-397.1 153.8-96.6 371.3-109.6 552.5-76.8 187.8 33.6 368.1 126.8 451.5 253.2 86.7 131.8 68.8 295.9-6.1 417.5-80.6 136-246.8 226-435.6 252.7-191.6 28.4-383.3-5.8-526.7-76.2z" fill="#d97757"/></g></svg>
