<svg viewBox="0 0 1440 1024" xmlns="http://www.w3.org/2000/svg"><defs><filter id="bg-consultations" x="-300" y="-300" width="2040" height="1624" filterUnits="userSpaceOnUse" color-interpolation-filters="sRGB"><feGaussianBlur stdDeviation="80"/></filter></defs><g fill-rule="evenodd" filter="url(#bg-consultations)" opacity="0.2"><path d="m189.7 1319.6c-69.6-93.7-23.5-226.2-35.8-342.3-12.4-116.8-109.2-251.6-37.1-344.2 78.7-100.9 247.9-38.2 368.5-80.7 79-27.7 138.5-86.9 213.5-124 111.5-55 212.6-164.2 335.8-147.2 120.9 16.7 261.5 110.3 275.4 231.5 16.3 142.5-227 226.8-206.7 368.8 21.7 152.3 325.6 181.3 307.1 334.1-15.6 128.2-233.5 104.8-362 118.8-90.5 9.9-174.4-70.5-263.4-51.1-107.9 23.6-167.8 162.9-278 169.5-116.5 7.2-247.9-39.5-317.4-133.3z" fill="#d97757"/><path d="m561.5-498.8c133.3-39.1 282.7-7.8 398.2 73.9 124.1 87.1 211.4 227.6 222.6 375.8 10 156.8-73 302.7-176.5 397.5-106.9 98.5-257.4 155.7-392.5 131.1-140.8-25.8-262-137.8-325.5-259.8-72.3-134.5-71.8-295.1-11.9-431.2 59.8-138.9 168.8-239.5 285.6-287.3z" fill="#d9b057"/></g></svg>
