<svg xmlns="http://www.w3.org/2000/svg" viewBox="0 0 600 600" fill="none">
  <line x1="300" y1="10" x2="300" y2="245" stroke="#ffffff" stroke-width="1" transform="rotate(0, 300, 300)"/>
  <line x1="300" y1="10" x2="300" y2="245" stroke="#ffffff" stroke-width="1" transform="rotate(30, 300, 300)"/>
  <line x1="300" y1="10" x2="300" y2="245" stroke="#ffffff" stroke-width="1" transform="rotate(60, 300, 300)"/>
  <line x1="300" y1="10" x2="300" y2="245" stroke="#ffffff" stroke-width="1" transform="rotate(90, 300, 300)"/>
  <line x1="300" y1="10" x2="300" y2="245" stroke="#ffffff" stroke-width="1" transform="rotate(120, 300, 300)"/>
  <line x1="300" y1="10" x2="300" y2="245" stroke="#ffffff" stroke-width="1" transform="rotate(150, 300, 300)"/>
  <line x1="300" y1="10" x2="300" y2="245" stroke="#ffffff" stroke-width="1" transform="rotate(180, 300, 300)"/>
  <line x1="300" y1="10" x2="300" y2="245" stroke="#ffffff" stroke-width="1" transform="rotate(210, 300, 300)"/>
  <line x1="300" y1="10" x2="300" y2="245" stroke="#ffffff" stroke-width="1" transform="rotate(240, 300, 300)"/>
  <line x1="300" y1="10" x2="300" y2="245" stroke="#ffffff" stroke-width="1" transform="rotate(270, 300, 300)"/>
  <line x1="300" y1="10" x2="300" y2="245" stroke="#ffffff" stroke-width="1" transform="rotate(300, 300, 300)"/>
  <line x1="300" y1="10" x2="300" y2="245" stroke="#ffffff" stroke-width="1" transform="rotate(330, 300, 300)"/>

  <!-- Zodiac signs centred between each spoke pair, in the outer ring (r=255–290, midpoint r≈272) -->
  <!-- baseline faces centre; glyphs scaled 1.3× radially via transform chain -->
  <g transform="rotate(15, 300, 300)">
    <text x="300" y="36" text-anchor="middle" fill="#ffffff" font-size="14" transform="translate(300,36) scale(2,1.5) translate(-300,-36)">&#x264C;&#xFE0E;</text>
  </g>
  <g transform="rotate(45, 300, 300)">
    <text x="300" y="36" text-anchor="middle" fill="#ffffff" font-size="14" transform="translate(300,36) scale(2,1.5) translate(-300,-36)">&#x264D;&#xFE0E;</text>
  </g>
  <g transform="rotate(75, 300, 300)">
    <text x="300" y="36" text-anchor="middle" fill="#ffffff" font-size="14" transform="translate(300,36) scale(2,1.5) translate(-300,-36)">&#x264E;&#xFE0E;</text>
  </g>
  <g transform="rotate(105, 300, 300)">
    <text x="300" y="36" text-anchor="middle" fill="#ffffff" font-size="14" transform="translate(300,36) scale(2,1.5) translate(-300,-36)">&#x264F;&#xFE0E;</text>
  </g>
  <g transform="rotate(135, 300, 300)">
    <text x="300" y="36" text-anchor="middle" fill="#ffffff" font-size="14" transform="translate(300,36) scale(2,1.5) translate(-300,-36)">&#x2650;&#xFE0E;</text>
  </g>
  <g transform="rotate(165, 300, 300)">
    <text x="300" y="36" text-anchor="middle" fill="#ffffff" font-size="14" transform="translate(300,36) scale(2,1.5) translate(-300,-36)">&#x2651;&#xFE0E;</text>
  </g>
  <g transform="rotate(195, 300, 300)">
    <text x="300" y="36" text-anchor="middle" fill="#ffffff" font-size="14" transform="translate(300,36) scale(2,1.5) translate(-300,-36)">&#x2652;&#xFE0E;</text>
  </g>
  <g transform="rotate(225, 300, 300)">
    <text x="300" y="36" text-anchor="middle" fill="#ffffff" font-size="14" transform="translate(300,36) scale(2,1.5) translate(-300,-36)">&#x2653;&#xFE0E;</text>
  </g>
  <g transform="rotate(255, 300, 300)">
    <text x="300" y="36" text-anchor="middle" fill="#ffffff" font-size="14" transform="translate(300,36) scale(2,1.5) translate(-300,-36)">&#x2648;&#xFE0E;</text>
  </g>
  <g transform="rotate(285, 300, 300)">
    <text x="300" y="36" text-anchor="middle" fill="#ffffff" font-size="14" transform="translate(300,36) scale(2,1.5) translate(-300,-36)">&#x2649;&#xFE0E;</text>
  </g>
  <g transform="rotate(315, 300, 300)">
    <text x="300" y="36" text-anchor="middle" fill="#ffffff" font-size="14" transform="translate(300,36) scale(2,1.5) translate(-300,-36)">&#x264A;&#xFE0E;</text>
  </g>
  <g transform="rotate(345, 300, 300)">
    <text x="300" y="36" text-anchor="middle" fill="#ffffff" font-size="14" transform="translate(300,36) scale(2,1.5) translate(-300,-36)">&#x264B;&#xFE0E;</text>
  </g>
</svg>
