<svg viewBox="0 0 1440 1024" xmlns="http://www.w3.org/2000/svg"><g fill-rule="evenodd"><path d="m-385.8 248.7c91.8-72 225.5-29.4 341.2-44.7 116.4-15.5 248.7-115.8 343.1-46.1 102.9 76 44.7 246.8 90.3 366.3 29.8 78.2 90.5 136.2 129.5 210.2 57.9 110 169.7 208.2 155.9 331.8-13.5 121.3-103.4 264.3-224.2 281.4-142 20-232.7-221-374.1-197-151.7 25.7-172.7 330.2-325.9 315.7-128.6-12.2-110.9-230.7-128.2-358.8-12.3-90.2 65.9-176.2 44.2-264.6-26.4-107.2-167.2-163.5-176.7-273.5-10.2-116.3 33-248.8 124.9-320.8z" fill="#d9b057" opacity=".2"/><path d="m857.6-323.7c107.2-65.7 161.1-213.8 286.2-222.3 170.3-11.6 390 18.7 456.7 171.7s-107.1 301.2-184.9 451.8c-65 125.7-86.9 306.5-225.3 342-137 35.1-218.9-151.2-352.1-193.7-147-47-373.3 74.9-443-60.3-68.7-133.2 108.7-272.6 214-383.9 63.9-67.7 168.6-56.4 248.3-105.2z" fill="#753742" opacity=".2"/><path d="m764.4 691.5c70-120 200-200 340-220 150-22 310 20 420 120 115 107 155 270 145 410-10 145-80 290-195 365-120 78-285 80-415 35-145-48-255-165-305-305-52-142-42-290 10-405z" fill="#d97757" opacity=".2"/></g></svg>