<svg xmlns="http://www.w3.org/2000/svg" viewBox="0 0 600 600" fill="none">
  <line x1="300" y1="10" x2="300" y2="245" stroke="#d0cec4" stroke-width="1.5" transform="rotate(0, 300, 300)"/>
  <line x1="300" y1="10" x2="300" y2="245" stroke="#d0cec4" stroke-width="1.5" transform="rotate(30, 300, 300)"/>
  <line x1="300" y1="10" x2="300" y2="245" stroke="#d0cec4" stroke-width="1.5" transform="rotate(60, 300, 300)"/>
  <line x1="300" y1="10" x2="300" y2="245" stroke="#d0cec4" stroke-width="1.5" transform="rotate(90, 300, 300)"/>
  <line x1="300" y1="10" x2="300" y2="245" stroke="#d0cec4" stroke-width="1.5" transform="rotate(120, 300, 300)"/>
  <line x1="300" y1="10" x2="300" y2="245" stroke="#d0cec4" stroke-width="1.5" transform="rotate(150, 300, 300)"/>
  <line x1="300" y1="10" x2="300" y2="245" stroke="#d0cec4" stroke-width="1.5" transform="rotate(180, 300, 300)"/>
  <line x1="300" y1="10" x2="300" y2="245" stroke="#d0cec4" stroke-width="1.5" transform="rotate(210, 300, 300)"/>
  <line x1="300" y1="10" x2="300" y2="245" stroke="#d0cec4" stroke-width="1.5" transform="rotate(240, 300, 300)"/>
  <line x1="300" y1="10" x2="300" y2="245" stroke="#d0cec4" stroke-width="1.5" transform="rotate(270, 300, 300)"/>
  <line x1="300" y1="10" x2="300" y2="245" stroke="#d0cec4" stroke-width="1.5" transform="rotate(300, 300, 300)"/>
  <line x1="300" y1="10" x2="300" y2="245" stroke="#d0cec4" stroke-width="1.5" transform="rotate(330, 300, 300)"/>
</svg>