<svg xmlns="http://www.w3.org/2000/svg" viewBox="0 0 600 600" fill="none">
  <line x1="300" y1="10" x2="300" y2="45" stroke="#d0cec4" stroke-width="1" stroke-linecap="round" transform="rotate(0, 300, 300)"/>
  <line x1="300" y1="10" x2="300" y2="20" stroke="#d0cec4" stroke-width="1" stroke-linecap="round" transform="rotate(1, 300, 300)"/>
  <line x1="300" y1="10" x2="300" y2="20" stroke="#d0cec4" stroke-width="1" stroke-linecap="round" transform="rotate(2, 300, 300)"/>
  <line x1="300" y1="10" x2="300" y2="20" stroke="#d0cec4" stroke-width="1" stroke-linecap="round" transform="rotate(3, 300, 300)"/>
  <line x1="300" y1="10" x2="300" y2="20" stroke="#d0cec4" stroke-width="1" stroke-linecap="round" transform="rotate(4, 300, 300)"/>
  <line x1="300" y1="10" x2="300" y2="32" stroke="#d0cec4" stroke-width="1" stroke-linecap="round" transform="rotate(5, 300, 300)"/>
  <line x1="300" y1="10" x2="300" y2="20" stroke="#d0cec4" stroke-width="1" stroke-linecap="round" transform="rotate(6, 300, 300)"/>
  <line x1="300" y1="10" x2="300" y2="20" stroke="#d0cec4" stroke-width="1" stroke-linecap="round" transform="rotate(7, 300, 300)"/>
  <line x1="300" y1="10" x2="300" y2="20" stroke="#d0cec4" stroke-width="1" stroke-linecap="round" transform="rotate(8, 300, 300)"/>
  <line x1="300" y1="10" x2="300" y2="20" stroke="#d0cec4" stroke-width="1" stroke-linecap="round" transform="rotate(9, 300, 300)"/>
  <line x1="300" y1="10" x2="300" y2="45" stroke="#d0cec4" stroke-width="1" stroke-linecap="round" transform="rotate(10, 300, 300)"/>
  <line x1="300" y1="10" x2="300" y2="20" stroke="#d0cec4" stroke-width="1" stroke-linecap="round" transform="rotate(11, 300, 300)"/>
  <line x1="300" y1="10" x2="300" y2="20" stroke="#d0cec4" stroke-width="1" stroke-linecap="round" transform="rotate(12, 300, 300)"/>
  <line x1="300" y1="10" x2="300" y2="20" stroke="#d0cec4" stroke-width="1" stroke-linecap="round" transform="rotate(13, 300, 300)"/>
  <line x1="300" y1="10" x2="300" y2="20" stroke="#d0cec4" stroke-width="1" stroke-linecap="round" transform="rotate(14, 300, 300)"/>
  <line x1="300" y1="10" x2="300" y2="32" stroke="#d0cec4" stroke-width="1" stroke-linecap="round" transform="rotate(15, 300, 300)"/>
  <line x1="300" y1="10" x2="300" y2="20" stroke="#d0cec4" stroke-width="1" stroke-linecap="round" transform="rotate(16, 300, 300)"/>
  <line x1="300" y1="10" x2="300" y2="20" stroke="#d0cec4" stroke-width="1" stroke-linecap="round" transform="rotate(17, 300, 300)"/>
  <line x1="300" y1="10" x2="300" y2="20" stroke="#d0cec4" stroke-width="1" stroke-linecap="round" transform="rotate(18, 300, 300)"/>
  <line x1="300" y1="10" x2="300" y2="20" stroke="#d0cec4" stroke-width="1" stroke-linecap="round" transform="rotate(19, 300, 300)"/>
  <line x1="300" y1="10" x2="300" y2="45" stroke="#d0cec4" stroke-width="1" stroke-linecap="round" transform="rotate(20, 300, 300)"/>
  <line x1="300" y1="10" x2="300" y2="20" stroke="#d0cec4" stroke-width="1" stroke-linecap="round" transform="rotate(21, 300, 300)"/>
  <line x1="300" y1="10" x2="300" y2="20" stroke="#d0cec4" stroke-width="1" stroke-linecap="round" transform="rotate(22, 300, 300)"/>
  <line x1="300" y1="10" x2="300" y2="20" stroke="#d0cec4" stroke-width="1" stroke-linecap="round" transform="rotate(23, 300, 300)"/>
  <line x1="300" y1="10" x2="300" y2="20" stroke="#d0cec4" stroke-width="1" stroke-linecap="round" transform="rotate(24, 300, 300)"/>
  <line x1="300" y1="10" x2="300" y2="32" stroke="#d0cec4" stroke-width="1" stroke-linecap="round" transform="rotate(25, 300, 300)"/>
  <line x1="300" y1="10" x2="300" y2="20" stroke="#d0cec4" stroke-width="1" stroke-linecap="round" transform="rotate(26, 300, 300)"/>
  <line x1="300" y1="10" x2="300" y2="20" stroke="#d0cec4" stroke-width="1" stroke-linecap="round" transform="rotate(27, 300, 300)"/>
  <line x1="300" y1="10" x2="300" y2="20" stroke="#d0cec4" stroke-width="1" stroke-linecap="round" transform="rotate(28, 300, 300)"/>
  <line x1="300" y1="10" x2="300" y2="20" stroke="#d0cec4" stroke-width="1" stroke-linecap="round" transform="rotate(29, 300, 300)"/>
  <line x1="300" y1="10" x2="300" y2="45" stroke="#d0cec4" stroke-width="1" stroke-linecap="round" transform="rotate(30, 300, 300)"/>
  <line x1="300" y1="10" x2="300" y2="20" stroke="#d0cec4" stroke-width="1" stroke-linecap="round" transform="rotate(31, 300, 300)"/>
  <line x1="300" y1="10" x2="300" y2="20" stroke="#d0cec4" stroke-width="1" stroke-linecap="round" transform="rotate(32, 300, 300)"/>
  <line x1="300" y1="10" x2="300" y2="20" stroke="#d0cec4" stroke-width="1" stroke-linecap="round" transform="rotate(33, 300, 300)"/>
  <line x1="300" y1="10" x2="300" y2="20" stroke="#d0cec4" stroke-width="1" stroke-linecap="round" transform="rotate(34, 300, 300)"/>
  <line x1="300" y1="10" x2="300" y2="32" stroke="#d0cec4" stroke-width="1" stroke-linecap="round" transform="rotate(35, 300, 300)"/>
  <line x1="300" y1="10" x2="300" y2="20" stroke="#d0cec4" stroke-width="1" stroke-linecap="round" transform="rotate(36, 300, 300)"/>
  <line x1="300" y1="10" x2="300" y2="20" stroke="#d0cec4" stroke-width="1" stroke-linecap="round" transform="rotate(37, 300, 300)"/>
  <line x1="300" y1="10" x2="300" y2="20" stroke="#d0cec4" stroke-width="1" stroke-linecap="round" transform="rotate(38, 300, 300)"/>
  <line x1="300" y1="10" x2="300" y2="20" stroke="#d0cec4" stroke-width="1" stroke-linecap="round" transform="rotate(39, 300, 300)"/>
  <line x1="300" y1="10" x2="300" y2="45" stroke="#d0cec4" stroke-width="1" stroke-linecap="round" transform="rotate(40, 300, 300)"/>
  <line x1="300" y1="10" x2="300" y2="20" stroke="#d0cec4" stroke-width="1" stroke-linecap="round" transform="rotate(41, 300, 300)"/>
  <line x1="300" y1="10" x2="300" y2="20" stroke="#d0cec4" stroke-width="1" stroke-linecap="round" transform="rotate(42, 300, 300)"/>
  <line x1="300" y1="10" x2="300" y2="20" stroke="#d0cec4" stroke-width="1" stroke-linecap="round" transform="rotate(43, 300, 300)"/>
  <line x1="300" y1="10" x2="300" y2="20" stroke="#d0cec4" stroke-width="1" stroke-linecap="round" transform="rotate(44, 300, 300)"/>
  <line x1="300" y1="10" x2="300" y2="32" stroke="#d0cec4" stroke-width="1" stroke-linecap="round" transform="rotate(45, 300, 300)"/>
  <line x1="300" y1="10" x2="300" y2="20" stroke="#d0cec4" stroke-width="1" stroke-linecap="round" transform="rotate(46, 300, 300)"/>
  <line x1="300" y1="10" x2="300" y2="20" stroke="#d0cec4" stroke-width="1" stroke-linecap="round" transform="rotate(47, 300, 300)"/>
  <line x1="300" y1="10" x2="300" y2="20" stroke="#d0cec4" stroke-width="1" stroke-linecap="round" transform="rotate(48, 300, 300)"/>
  <line x1="300" y1="10" x2="300" y2="20" stroke="#d0cec4" stroke-width="1" stroke-linecap="round" transform="rotate(49, 300, 300)"/>
  <line x1="300" y1="10" x2="300" y2="45" stroke="#d0cec4" stroke-width="1" stroke-linecap="round" transform="rotate(50, 300, 300)"/>
  <line x1="300" y1="10" x2="300" y2="20" stroke="#d0cec4" stroke-width="1" stroke-linecap="round" transform="rotate(51, 300, 300)"/>
  <line x1="300" y1="10" x2="300" y2="20" stroke="#d0cec4" stroke-width="1" stroke-linecap="round" transform="rotate(52, 300, 300)"/>
  <line x1="300" y1="10" x2="300" y2="20" stroke="#d0cec4" stroke-width="1" stroke-linecap="round" transform="rotate(53, 300, 300)"/>
  <line x1="300" y1="10" x2="300" y2="20" stroke="#d0cec4" stroke-width="1" stroke-linecap="round" transform="rotate(54, 300, 300)"/>
  <line x1="300" y1="10" x2="300" y2="32" stroke="#d0cec4" stroke-width="1" stroke-linecap="round" transform="rotate(55, 300, 300)"/>
  <line x1="300" y1="10" x2="300" y2="20" stroke="#d0cec4" stroke-width="1" stroke-linecap="round" transform="rotate(56, 300, 300)"/>
  <line x1="300" y1="10" x2="300" y2="20" stroke="#d0cec4" stroke-width="1" stroke-linecap="round" transform="rotate(57, 300, 300)"/>
  <line x1="300" y1="10" x2="300" y2="20" stroke="#d0cec4" stroke-width="1" stroke-linecap="round" transform="rotate(58, 300, 300)"/>
  <line x1="300" y1="10" x2="300" y2="20" stroke="#d0cec4" stroke-width="1" stroke-linecap="round" transform="rotate(59, 300, 300)"/>
  <line x1="300" y1="10" x2="300" y2="45" stroke="#d0cec4" stroke-width="1" stroke-linecap="round" transform="rotate(60, 300, 300)"/>
  <line x1="300" y1="10" x2="300" y2="20" stroke="#d0cec4" stroke-width="1" stroke-linecap="round" transform="rotate(61, 300, 300)"/>
  <line x1="300" y1="10" x2="300" y2="20" stroke="#d0cec4" stroke-width="1" stroke-linecap="round" transform="rotate(62, 300, 300)"/>
  <line x1="300" y1="10" x2="300" y2="20" stroke="#d0cec4" stroke-width="1" stroke-linecap="round" transform="rotate(63, 300, 300)"/>
  <line x1="300" y1="10" x2="300" y2="20" stroke="#d0cec4" stroke-width="1" stroke-linecap="round" transform="rotate(64, 300, 300)"/>
  <line x1="300" y1="10" x2="300" y2="32" stroke="#d0cec4" stroke-width="1" stroke-linecap="round" transform="rotate(65, 300, 300)"/>
  <line x1="300" y1="10" x2="300" y2="20" stroke="#d0cec4" stroke-width="1" stroke-linecap="round" transform="rotate(66, 300, 300)"/>
  <line x1="300" y1="10" x2="300" y2="20" stroke="#d0cec4" stroke-width="1" stroke-linecap="round" transform="rotate(67, 300, 300)"/>
  <line x1="300" y1="10" x2="300" y2="20" stroke="#d0cec4" stroke-width="1" stroke-linecap="round" transform="rotate(68, 300, 300)"/>
  <line x1="300" y1="10" x2="300" y2="20" stroke="#d0cec4" stroke-width="1" stroke-linecap="round" transform="rotate(69, 300, 300)"/>
  <line x1="300" y1="10" x2="300" y2="45" stroke="#d0cec4" stroke-width="1" stroke-linecap="round" transform="rotate(70, 300, 300)"/>
  <line x1="300" y1="10" x2="300" y2="20" stroke="#d0cec4" stroke-width="1" stroke-linecap="round" transform="rotate(71, 300, 300)"/>
  <line x1="300" y1="10" x2="300" y2="20" stroke="#d0cec4" stroke-width="1" stroke-linecap="round" transform="rotate(72, 300, 300)"/>
  <line x1="300" y1="10" x2="300" y2="20" stroke="#d0cec4" stroke-width="1" stroke-linecap="round" transform="rotate(73, 300, 300)"/>
  <line x1="300" y1="10" x2="300" y2="20" stroke="#d0cec4" stroke-width="1" stroke-linecap="round" transform="rotate(74, 300, 300)"/>
  <line x1="300" y1="10" x2="300" y2="32" stroke="#d0cec4" stroke-width="1" stroke-linecap="round" transform="rotate(75, 300, 300)"/>
  <line x1="300" y1="10" x2="300" y2="20" stroke="#d0cec4" stroke-width="1" stroke-linecap="round" transform="rotate(76, 300, 300)"/>
  <line x1="300" y1="10" x2="300" y2="20" stroke="#d0cec4" stroke-width="1" stroke-linecap="round" transform="rotate(77, 300, 300)"/>
  <line x1="300" y1="10" x2="300" y2="20" stroke="#d0cec4" stroke-width="1" stroke-linecap="round" transform="rotate(78, 300, 300)"/>
  <line x1="300" y1="10" x2="300" y2="20" stroke="#d0cec4" stroke-width="1" stroke-linecap="round" transform="rotate(79, 300, 300)"/>
  <line x1="300" y1="10" x2="300" y2="45" stroke="#d0cec4" stroke-width="1" stroke-linecap="round" transform="rotate(80, 300, 300)"/>
  <line x1="300" y1="10" x2="300" y2="20" stroke="#d0cec4" stroke-width="1" stroke-linecap="round" transform="rotate(81, 300, 300)"/>
  <line x1="300" y1="10" x2="300" y2="20" stroke="#d0cec4" stroke-width="1" stroke-linecap="round" transform="rotate(82, 300, 300)"/>
  <line x1="300" y1="10" x2="300" y2="20" stroke="#d0cec4" stroke-width="1" stroke-linecap="round" transform="rotate(83, 300, 300)"/>
  <line x1="300" y1="10" x2="300" y2="20" stroke="#d0cec4" stroke-width="1" stroke-linecap="round" transform="rotate(84, 300, 300)"/>
  <line x1="300" y1="10" x2="300" y2="32" stroke="#d0cec4" stroke-width="1" stroke-linecap="round" transform="rotate(85, 300, 300)"/>
  <line x1="300" y1="10" x2="300" y2="20" stroke="#d0cec4" stroke-width="1" stroke-linecap="round" transform="rotate(86, 300, 300)"/>
  <line x1="300" y1="10" x2="300" y2="20" stroke="#d0cec4" stroke-width="1" stroke-linecap="round" transform="rotate(87, 300, 300)"/>
  <line x1="300" y1="10" x2="300" y2="20" stroke="#d0cec4" stroke-width="1" stroke-linecap="round" transform="rotate(88, 300, 300)"/>
  <line x1="300" y1="10" x2="300" y2="20" stroke="#d0cec4" stroke-width="1" stroke-linecap="round" transform="rotate(89, 300, 300)"/>
  <line x1="300" y1="10" x2="300" y2="45" stroke="#d0cec4" stroke-width="1" stroke-linecap="round" transform="rotate(90, 300, 300)"/>
  <line x1="300" y1="10" x2="300" y2="20" stroke="#d0cec4" stroke-width="1" stroke-linecap="round" transform="rotate(91, 300, 300)"/>
  <line x1="300" y1="10" x2="300" y2="20" stroke="#d0cec4" stroke-width="1" stroke-linecap="round" transform="rotate(92, 300, 300)"/>
  <line x1="300" y1="10" x2="300" y2="20" stroke="#d0cec4" stroke-width="1" stroke-linecap="round" transform="rotate(93, 300, 300)"/>
  <line x1="300" y1="10" x2="300" y2="20" stroke="#d0cec4" stroke-width="1" stroke-linecap="round" transform="rotate(94, 300, 300)"/>
  <line x1="300" y1="10" x2="300" y2="32" stroke="#d0cec4" stroke-width="1" stroke-linecap="round" transform="rotate(95, 300, 300)"/>
  <line x1="300" y1="10" x2="300" y2="20" stroke="#d0cec4" stroke-width="1" stroke-linecap="round" transform="rotate(96, 300, 300)"/>
  <line x1="300" y1="10" x2="300" y2="20" stroke="#d0cec4" stroke-width="1" stroke-linecap="round" transform="rotate(97, 300, 300)"/>
  <line x1="300" y1="10" x2="300" y2="20" stroke="#d0cec4" stroke-width="1" stroke-linecap="round" transform="rotate(98, 300, 300)"/>
  <line x1="300" y1="10" x2="300" y2="20" stroke="#d0cec4" stroke-width="1" stroke-linecap="round" transform="rotate(99, 300, 300)"/>
  <line x1="300" y1="10" x2="300" y2="45" stroke="#d0cec4" stroke-width="1" stroke-linecap="round" transform="rotate(100, 300, 300)"/>
  <line x1="300" y1="10" x2="300" y2="20" stroke="#d0cec4" stroke-width="1" stroke-linecap="round" transform="rotate(101, 300, 300)"/>
  <line x1="300" y1="10" x2="300" y2="20" stroke="#d0cec4" stroke-width="1" stroke-linecap="round" transform="rotate(102, 300, 300)"/>
  <line x1="300" y1="10" x2="300" y2="20" stroke="#d0cec4" stroke-width="1" stroke-linecap="round" transform="rotate(103, 300, 300)"/>
  <line x1="300" y1="10" x2="300" y2="20" stroke="#d0cec4" stroke-width="1" stroke-linecap="round" transform="rotate(104, 300, 300)"/>
  <line x1="300" y1="10" x2="300" y2="32" stroke="#d0cec4" stroke-width="1" stroke-linecap="round" transform="rotate(105, 300, 300)"/>
  <line x1="300" y1="10" x2="300" y2="20" stroke="#d0cec4" stroke-width="1" stroke-linecap="round" transform="rotate(106, 300, 300)"/>
  <line x1="300" y1="10" x2="300" y2="20" stroke="#d0cec4" stroke-width="1" stroke-linecap="round" transform="rotate(107, 300, 300)"/>
  <line x1="300" y1="10" x2="300" y2="20" stroke="#d0cec4" stroke-width="1" stroke-linecap="round" transform="rotate(108, 300, 300)"/>
  <line x1="300" y1="10" x2="300" y2="20" stroke="#d0cec4" stroke-width="1" stroke-linecap="round" transform="rotate(109, 300, 300)"/>
  <line x1="300" y1="10" x2="300" y2="45" stroke="#d0cec4" stroke-width="1" stroke-linecap="round" transform="rotate(110, 300, 300)"/>
  <line x1="300" y1="10" x2="300" y2="20" stroke="#d0cec4" stroke-width="1" stroke-linecap="round" transform="rotate(111, 300, 300)"/>
  <line x1="300" y1="10" x2="300" y2="20" stroke="#d0cec4" stroke-width="1" stroke-linecap="round" transform="rotate(112, 300, 300)"/>
  <line x1="300" y1="10" x2="300" y2="20" stroke="#d0cec4" stroke-width="1" stroke-linecap="round" transform="rotate(113, 300, 300)"/>
  <line x1="300" y1="10" x2="300" y2="20" stroke="#d0cec4" stroke-width="1" stroke-linecap="round" transform="rotate(114, 300, 300)"/>
  <line x1="300" y1="10" x2="300" y2="32" stroke="#d0cec4" stroke-width="1" stroke-linecap="round" transform="rotate(115, 300, 300)"/>
  <line x1="300" y1="10" x2="300" y2="20" stroke="#d0cec4" stroke-width="1" stroke-linecap="round" transform="rotate(116, 300, 300)"/>
  <line x1="300" y1="10" x2="300" y2="20" stroke="#d0cec4" stroke-width="1" stroke-linecap="round" transform="rotate(117, 300, 300)"/>
  <line x1="300" y1="10" x2="300" y2="20" stroke="#d0cec4" stroke-width="1" stroke-linecap="round" transform="rotate(118, 300, 300)"/>
  <line x1="300" y1="10" x2="300" y2="20" stroke="#d0cec4" stroke-width="1" stroke-linecap="round" transform="rotate(119, 300, 300)"/>
  <line x1="300" y1="10" x2="300" y2="45" stroke="#d0cec4" stroke-width="1" stroke-linecap="round" transform="rotate(120, 300, 300)"/>
  <line x1="300" y1="10" x2="300" y2="20" stroke="#d0cec4" stroke-width="1" stroke-linecap="round" transform="rotate(121, 300, 300)"/>
  <line x1="300" y1="10" x2="300" y2="20" stroke="#d0cec4" stroke-width="1" stroke-linecap="round" transform="rotate(122, 300, 300)"/>
  <line x1="300" y1="10" x2="300" y2="20" stroke="#d0cec4" stroke-width="1" stroke-linecap="round" transform="rotate(123, 300, 300)"/>
  <line x1="300" y1="10" x2="300" y2="20" stroke="#d0cec4" stroke-width="1" stroke-linecap="round" transform="rotate(124, 300, 300)"/>
  <line x1="300" y1="10" x2="300" y2="32" stroke="#d0cec4" stroke-width="1" stroke-linecap="round" transform="rotate(125, 300, 300)"/>
  <line x1="300" y1="10" x2="300" y2="20" stroke="#d0cec4" stroke-width="1" stroke-linecap="round" transform="rotate(126, 300, 300)"/>
  <line x1="300" y1="10" x2="300" y2="20" stroke="#d0cec4" stroke-width="1" stroke-linecap="round" transform="rotate(127, 300, 300)"/>
  <line x1="300" y1="10" x2="300" y2="20" stroke="#d0cec4" stroke-width="1" stroke-linecap="round" transform="rotate(128, 300, 300)"/>
  <line x1="300" y1="10" x2="300" y2="20" stroke="#d0cec4" stroke-width="1" stroke-linecap="round" transform="rotate(129, 300, 300)"/>
  <line x1="300" y1="10" x2="300" y2="45" stroke="#d0cec4" stroke-width="1" stroke-linecap="round" transform="rotate(130, 300, 300)"/>
  <line x1="300" y1="10" x2="300" y2="20" stroke="#d0cec4" stroke-width="1" stroke-linecap="round" transform="rotate(131, 300, 300)"/>
  <line x1="300" y1="10" x2="300" y2="20" stroke="#d0cec4" stroke-width="1" stroke-linecap="round" transform="rotate(132, 300, 300)"/>
  <line x1="300" y1="10" x2="300" y2="20" stroke="#d0cec4" stroke-width="1" stroke-linecap="round" transform="rotate(133, 300, 300)"/>
  <line x1="300" y1="10" x2="300" y2="20" stroke="#d0cec4" stroke-width="1" stroke-linecap="round" transform="rotate(134, 300, 300)"/>
  <line x1="300" y1="10" x2="300" y2="32" stroke="#d0cec4" stroke-width="1" stroke-linecap="round" transform="rotate(135, 300, 300)"/>
  <line x1="300" y1="10" x2="300" y2="20" stroke="#d0cec4" stroke-width="1" stroke-linecap="round" transform="rotate(136, 300, 300)"/>
  <line x1="300" y1="10" x2="300" y2="20" stroke="#d0cec4" stroke-width="1" stroke-linecap="round" transform="rotate(137, 300, 300)"/>
  <line x1="300" y1="10" x2="300" y2="20" stroke="#d0cec4" stroke-width="1" stroke-linecap="round" transform="rotate(138, 300, 300)"/>
  <line x1="300" y1="10" x2="300" y2="20" stroke="#d0cec4" stroke-width="1" stroke-linecap="round" transform="rotate(139, 300, 300)"/>
  <line x1="300" y1="10" x2="300" y2="45" stroke="#d0cec4" stroke-width="1" stroke-linecap="round" transform="rotate(140, 300, 300)"/>
  <line x1="300" y1="10" x2="300" y2="20" stroke="#d0cec4" stroke-width="1" stroke-linecap="round" transform="rotate(141, 300, 300)"/>
  <line x1="300" y1="10" x2="300" y2="20" stroke="#d0cec4" stroke-width="1" stroke-linecap="round" transform="rotate(142, 300, 300)"/>
  <line x1="300" y1="10" x2="300" y2="20" stroke="#d0cec4" stroke-width="1" stroke-linecap="round" transform="rotate(143, 300, 300)"/>
  <line x1="300" y1="10" x2="300" y2="20" stroke="#d0cec4" stroke-width="1" stroke-linecap="round" transform="rotate(144, 300, 300)"/>
  <line x1="300" y1="10" x2="300" y2="32" stroke="#d0cec4" stroke-width="1" stroke-linecap="round" transform="rotate(145, 300, 300)"/>
  <line x1="300" y1="10" x2="300" y2="20" stroke="#d0cec4" stroke-width="1" stroke-linecap="round" transform="rotate(146, 300, 300)"/>
  <line x1="300" y1="10" x2="300" y2="20" stroke="#d0cec4" stroke-width="1" stroke-linecap="round" transform="rotate(147, 300, 300)"/>
  <line x1="300" y1="10" x2="300" y2="20" stroke="#d0cec4" stroke-width="1" stroke-linecap="round" transform="rotate(148, 300, 300)"/>
  <line x1="300" y1="10" x2="300" y2="20" stroke="#d0cec4" stroke-width="1" stroke-linecap="round" transform="rotate(149, 300, 300)"/>
  <line x1="300" y1="10" x2="300" y2="45" stroke="#d0cec4" stroke-width="1" stroke-linecap="round" transform="rotate(150, 300, 300)"/>
  <line x1="300" y1="10" x2="300" y2="20" stroke="#d0cec4" stroke-width="1" stroke-linecap="round" transform="rotate(151, 300, 300)"/>
  <line x1="300" y1="10" x2="300" y2="20" stroke="#d0cec4" stroke-width="1" stroke-linecap="round" transform="rotate(152, 300, 300)"/>
  <line x1="300" y1="10" x2="300" y2="20" stroke="#d0cec4" stroke-width="1" stroke-linecap="round" transform="rotate(153, 300, 300)"/>
  <line x1="300" y1="10" x2="300" y2="20" stroke="#d0cec4" stroke-width="1" stroke-linecap="round" transform="rotate(154, 300, 300)"/>
  <line x1="300" y1="10" x2="300" y2="32" stroke="#d0cec4" stroke-width="1" stroke-linecap="round" transform="rotate(155, 300, 300)"/>
  <line x1="300" y1="10" x2="300" y2="20" stroke="#d0cec4" stroke-width="1" stroke-linecap="round" transform="rotate(156, 300, 300)"/>
  <line x1="300" y1="10" x2="300" y2="20" stroke="#d0cec4" stroke-width="1" stroke-linecap="round" transform="rotate(157, 300, 300)"/>
  <line x1="300" y1="10" x2="300" y2="20" stroke="#d0cec4" stroke-width="1" stroke-linecap="round" transform="rotate(158, 300, 300)"/>
  <line x1="300" y1="10" x2="300" y2="20" stroke="#d0cec4" stroke-width="1" stroke-linecap="round" transform="rotate(159, 300, 300)"/>
  <line x1="300" y1="10" x2="300" y2="45" stroke="#d0cec4" stroke-width="1" stroke-linecap="round" transform="rotate(160, 300, 300)"/>
  <line x1="300" y1="10" x2="300" y2="20" stroke="#d0cec4" stroke-width="1" stroke-linecap="round" transform="rotate(161, 300, 300)"/>
  <line x1="300" y1="10" x2="300" y2="20" stroke="#d0cec4" stroke-width="1" stroke-linecap="round" transform="rotate(162, 300, 300)"/>
  <line x1="300" y1="10" x2="300" y2="20" stroke="#d0cec4" stroke-width="1" stroke-linecap="round" transform="rotate(163, 300, 300)"/>
  <line x1="300" y1="10" x2="300" y2="20" stroke="#d0cec4" stroke-width="1" stroke-linecap="round" transform="rotate(164, 300, 300)"/>
  <line x1="300" y1="10" x2="300" y2="32" stroke="#d0cec4" stroke-width="1" stroke-linecap="round" transform="rotate(165, 300, 300)"/>
  <line x1="300" y1="10" x2="300" y2="20" stroke="#d0cec4" stroke-width="1" stroke-linecap="round" transform="rotate(166, 300, 300)"/>
  <line x1="300" y1="10" x2="300" y2="20" stroke="#d0cec4" stroke-width="1" stroke-linecap="round" transform="rotate(167, 300, 300)"/>
  <line x1="300" y1="10" x2="300" y2="20" stroke="#d0cec4" stroke-width="1" stroke-linecap="round" transform="rotate(168, 300, 300)"/>
  <line x1="300" y1="10" x2="300" y2="20" stroke="#d0cec4" stroke-width="1" stroke-linecap="round" transform="rotate(169, 300, 300)"/>
  <line x1="300" y1="10" x2="300" y2="45" stroke="#d0cec4" stroke-width="1" stroke-linecap="round" transform="rotate(170, 300, 300)"/>
  <line x1="300" y1="10" x2="300" y2="20" stroke="#d0cec4" stroke-width="1" stroke-linecap="round" transform="rotate(171, 300, 300)"/>
  <line x1="300" y1="10" x2="300" y2="20" stroke="#d0cec4" stroke-width="1" stroke-linecap="round" transform="rotate(172, 300, 300)"/>
  <line x1="300" y1="10" x2="300" y2="20" stroke="#d0cec4" stroke-width="1" stroke-linecap="round" transform="rotate(173, 300, 300)"/>
  <line x1="300" y1="10" x2="300" y2="20" stroke="#d0cec4" stroke-width="1" stroke-linecap="round" transform="rotate(174, 300, 300)"/>
  <line x1="300" y1="10" x2="300" y2="32" stroke="#d0cec4" stroke-width="1" stroke-linecap="round" transform="rotate(175, 300, 300)"/>
  <line x1="300" y1="10" x2="300" y2="20" stroke="#d0cec4" stroke-width="1" stroke-linecap="round" transform="rotate(176, 300, 300)"/>
  <line x1="300" y1="10" x2="300" y2="20" stroke="#d0cec4" stroke-width="1" stroke-linecap="round" transform="rotate(177, 300, 300)"/>
  <line x1="300" y1="10" x2="300" y2="20" stroke="#d0cec4" stroke-width="1" stroke-linecap="round" transform="rotate(178, 300, 300)"/>
  <line x1="300" y1="10" x2="300" y2="20" stroke="#d0cec4" stroke-width="1" stroke-linecap="round" transform="rotate(179, 300, 300)"/>
  <line x1="300" y1="10" x2="300" y2="45" stroke="#d0cec4" stroke-width="1" stroke-linecap="round" transform="rotate(180, 300, 300)"/>
  <line x1="300" y1="10" x2="300" y2="20" stroke="#d0cec4" stroke-width="1" stroke-linecap="round" transform="rotate(181, 300, 300)"/>
  <line x1="300" y1="10" x2="300" y2="20" stroke="#d0cec4" stroke-width="1" stroke-linecap="round" transform="rotate(182, 300, 300)"/>
  <line x1="300" y1="10" x2="300" y2="20" stroke="#d0cec4" stroke-width="1" stroke-linecap="round" transform="rotate(183, 300, 300)"/>
  <line x1="300" y1="10" x2="300" y2="20" stroke="#d0cec4" stroke-width="1" stroke-linecap="round" transform="rotate(184, 300, 300)"/>
  <line x1="300" y1="10" x2="300" y2="32" stroke="#d0cec4" stroke-width="1" stroke-linecap="round" transform="rotate(185, 300, 300)"/>
  <line x1="300" y1="10" x2="300" y2="20" stroke="#d0cec4" stroke-width="1" stroke-linecap="round" transform="rotate(186, 300, 300)"/>
  <line x1="300" y1="10" x2="300" y2="20" stroke="#d0cec4" stroke-width="1" stroke-linecap="round" transform="rotate(187, 300, 300)"/>
  <line x1="300" y1="10" x2="300" y2="20" stroke="#d0cec4" stroke-width="1" stroke-linecap="round" transform="rotate(188, 300, 300)"/>
  <line x1="300" y1="10" x2="300" y2="20" stroke="#d0cec4" stroke-width="1" stroke-linecap="round" transform="rotate(189, 300, 300)"/>
  <line x1="300" y1="10" x2="300" y2="45" stroke="#d0cec4" stroke-width="1" stroke-linecap="round" transform="rotate(190, 300, 300)"/>
  <line x1="300" y1="10" x2="300" y2="20" stroke="#d0cec4" stroke-width="1" stroke-linecap="round" transform="rotate(191, 300, 300)"/>
  <line x1="300" y1="10" x2="300" y2="20" stroke="#d0cec4" stroke-width="1" stroke-linecap="round" transform="rotate(192, 300, 300)"/>
  <line x1="300" y1="10" x2="300" y2="20" stroke="#d0cec4" stroke-width="1" stroke-linecap="round" transform="rotate(193, 300, 300)"/>
  <line x1="300" y1="10" x2="300" y2="20" stroke="#d0cec4" stroke-width="1" stroke-linecap="round" transform="rotate(194, 300, 300)"/>
  <line x1="300" y1="10" x2="300" y2="32" stroke="#d0cec4" stroke-width="1" stroke-linecap="round" transform="rotate(195, 300, 300)"/>
  <line x1="300" y1="10" x2="300" y2="20" stroke="#d0cec4" stroke-width="1" stroke-linecap="round" transform="rotate(196, 300, 300)"/>
  <line x1="300" y1="10" x2="300" y2="20" stroke="#d0cec4" stroke-width="1" stroke-linecap="round" transform="rotate(197, 300, 300)"/>
  <line x1="300" y1="10" x2="300" y2="20" stroke="#d0cec4" stroke-width="1" stroke-linecap="round" transform="rotate(198, 300, 300)"/>
  <line x1="300" y1="10" x2="300" y2="20" stroke="#d0cec4" stroke-width="1" stroke-linecap="round" transform="rotate(199, 300, 300)"/>
  <line x1="300" y1="10" x2="300" y2="45" stroke="#d0cec4" stroke-width="1" stroke-linecap="round" transform="rotate(200, 300, 300)"/>
  <line x1="300" y1="10" x2="300" y2="20" stroke="#d0cec4" stroke-width="1" stroke-linecap="round" transform="rotate(201, 300, 300)"/>
  <line x1="300" y1="10" x2="300" y2="20" stroke="#d0cec4" stroke-width="1" stroke-linecap="round" transform="rotate(202, 300, 300)"/>
  <line x1="300" y1="10" x2="300" y2="20" stroke="#d0cec4" stroke-width="1" stroke-linecap="round" transform="rotate(203, 300, 300)"/>
  <line x1="300" y1="10" x2="300" y2="20" stroke="#d0cec4" stroke-width="1" stroke-linecap="round" transform="rotate(204, 300, 300)"/>
  <line x1="300" y1="10" x2="300" y2="32" stroke="#d0cec4" stroke-width="1" stroke-linecap="round" transform="rotate(205, 300, 300)"/>
  <line x1="300" y1="10" x2="300" y2="20" stroke="#d0cec4" stroke-width="1" stroke-linecap="round" transform="rotate(206, 300, 300)"/>
  <line x1="300" y1="10" x2="300" y2="20" stroke="#d0cec4" stroke-width="1" stroke-linecap="round" transform="rotate(207, 300, 300)"/>
  <line x1="300" y1="10" x2="300" y2="20" stroke="#d0cec4" stroke-width="1" stroke-linecap="round" transform="rotate(208, 300, 300)"/>
  <line x1="300" y1="10" x2="300" y2="20" stroke="#d0cec4" stroke-width="1" stroke-linecap="round" transform="rotate(209, 300, 300)"/>
  <line x1="300" y1="10" x2="300" y2="45" stroke="#d0cec4" stroke-width="1" stroke-linecap="round" transform="rotate(210, 300, 300)"/>
  <line x1="300" y1="10" x2="300" y2="20" stroke="#d0cec4" stroke-width="1" stroke-linecap="round" transform="rotate(211, 300, 300)"/>
  <line x1="300" y1="10" x2="300" y2="20" stroke="#d0cec4" stroke-width="1" stroke-linecap="round" transform="rotate(212, 300, 300)"/>
  <line x1="300" y1="10" x2="300" y2="20" stroke="#d0cec4" stroke-width="1" stroke-linecap="round" transform="rotate(213, 300, 300)"/>
  <line x1="300" y1="10" x2="300" y2="20" stroke="#d0cec4" stroke-width="1" stroke-linecap="round" transform="rotate(214, 300, 300)"/>
  <line x1="300" y1="10" x2="300" y2="32" stroke="#d0cec4" stroke-width="1" stroke-linecap="round" transform="rotate(215, 300, 300)"/>
  <line x1="300" y1="10" x2="300" y2="20" stroke="#d0cec4" stroke-width="1" stroke-linecap="round" transform="rotate(216, 300, 300)"/>
  <line x1="300" y1="10" x2="300" y2="20" stroke="#d0cec4" stroke-width="1" stroke-linecap="round" transform="rotate(217, 300, 300)"/>
  <line x1="300" y1="10" x2="300" y2="20" stroke="#d0cec4" stroke-width="1" stroke-linecap="round" transform="rotate(218, 300, 300)"/>
  <line x1="300" y1="10" x2="300" y2="20" stroke="#d0cec4" stroke-width="1" stroke-linecap="round" transform="rotate(219, 300, 300)"/>
  <line x1="300" y1="10" x2="300" y2="45" stroke="#d0cec4" stroke-width="1" stroke-linecap="round" transform="rotate(220, 300, 300)"/>
  <line x1="300" y1="10" x2="300" y2="20" stroke="#d0cec4" stroke-width="1" stroke-linecap="round" transform="rotate(221, 300, 300)"/>
  <line x1="300" y1="10" x2="300" y2="20" stroke="#d0cec4" stroke-width="1" stroke-linecap="round" transform="rotate(222, 300, 300)"/>
  <line x1="300" y1="10" x2="300" y2="20" stroke="#d0cec4" stroke-width="1" stroke-linecap="round" transform="rotate(223, 300, 300)"/>
  <line x1="300" y1="10" x2="300" y2="20" stroke="#d0cec4" stroke-width="1" stroke-linecap="round" transform="rotate(224, 300, 300)"/>
  <line x1="300" y1="10" x2="300" y2="32" stroke="#d0cec4" stroke-width="1" stroke-linecap="round" transform="rotate(225, 300, 300)"/>
  <line x1="300" y1="10" x2="300" y2="20" stroke="#d0cec4" stroke-width="1" stroke-linecap="round" transform="rotate(226, 300, 300)"/>
  <line x1="300" y1="10" x2="300" y2="20" stroke="#d0cec4" stroke-width="1" stroke-linecap="round" transform="rotate(227, 300, 300)"/>
  <line x1="300" y1="10" x2="300" y2="20" stroke="#d0cec4" stroke-width="1" stroke-linecap="round" transform="rotate(228, 300, 300)"/>
  <line x1="300" y1="10" x2="300" y2="20" stroke="#d0cec4" stroke-width="1" stroke-linecap="round" transform="rotate(229, 300, 300)"/>
  <line x1="300" y1="10" x2="300" y2="45" stroke="#d0cec4" stroke-width="1" stroke-linecap="round" transform="rotate(230, 300, 300)"/>
  <line x1="300" y1="10" x2="300" y2="20" stroke="#d0cec4" stroke-width="1" stroke-linecap="round" transform="rotate(231, 300, 300)"/>
  <line x1="300" y1="10" x2="300" y2="20" stroke="#d0cec4" stroke-width="1" stroke-linecap="round" transform="rotate(232, 300, 300)"/>
  <line x1="300" y1="10" x2="300" y2="20" stroke="#d0cec4" stroke-width="1" stroke-linecap="round" transform="rotate(233, 300, 300)"/>
  <line x1="300" y1="10" x2="300" y2="20" stroke="#d0cec4" stroke-width="1" stroke-linecap="round" transform="rotate(234, 300, 300)"/>
  <line x1="300" y1="10" x2="300" y2="32" stroke="#d0cec4" stroke-width="1" stroke-linecap="round" transform="rotate(235, 300, 300)"/>
  <line x1="300" y1="10" x2="300" y2="20" stroke="#d0cec4" stroke-width="1" stroke-linecap="round" transform="rotate(236, 300, 300)"/>
  <line x1="300" y1="10" x2="300" y2="20" stroke="#d0cec4" stroke-width="1" stroke-linecap="round" transform="rotate(237, 300, 300)"/>
  <line x1="300" y1="10" x2="300" y2="20" stroke="#d0cec4" stroke-width="1" stroke-linecap="round" transform="rotate(238, 300, 300)"/>
  <line x1="300" y1="10" x2="300" y2="20" stroke="#d0cec4" stroke-width="1" stroke-linecap="round" transform="rotate(239, 300, 300)"/>
  <line x1="300" y1="10" x2="300" y2="45" stroke="#d0cec4" stroke-width="1" stroke-linecap="round" transform="rotate(240, 300, 300)"/>
  <line x1="300" y1="10" x2="300" y2="20" stroke="#d0cec4" stroke-width="1" stroke-linecap="round" transform="rotate(241, 300, 300)"/>
  <line x1="300" y1="10" x2="300" y2="20" stroke="#d0cec4" stroke-width="1" stroke-linecap="round" transform="rotate(242, 300, 300)"/>
  <line x1="300" y1="10" x2="300" y2="20" stroke="#d0cec4" stroke-width="1" stroke-linecap="round" transform="rotate(243, 300, 300)"/>
  <line x1="300" y1="10" x2="300" y2="20" stroke="#d0cec4" stroke-width="1" stroke-linecap="round" transform="rotate(244, 300, 300)"/>
  <line x1="300" y1="10" x2="300" y2="32" stroke="#d0cec4" stroke-width="1" stroke-linecap="round" transform="rotate(245, 300, 300)"/>
  <line x1="300" y1="10" x2="300" y2="20" stroke="#d0cec4" stroke-width="1" stroke-linecap="round" transform="rotate(246, 300, 300)"/>
  <line x1="300" y1="10" x2="300" y2="20" stroke="#d0cec4" stroke-width="1" stroke-linecap="round" transform="rotate(247, 300, 300)"/>
  <line x1="300" y1="10" x2="300" y2="20" stroke="#d0cec4" stroke-width="1" stroke-linecap="round" transform="rotate(248, 300, 300)"/>
  <line x1="300" y1="10" x2="300" y2="20" stroke="#d0cec4" stroke-width="1" stroke-linecap="round" transform="rotate(249, 300, 300)"/>
  <line x1="300" y1="10" x2="300" y2="45" stroke="#d0cec4" stroke-width="1" stroke-linecap="round" transform="rotate(250, 300, 300)"/>
  <line x1="300" y1="10" x2="300" y2="20" stroke="#d0cec4" stroke-width="1" stroke-linecap="round" transform="rotate(251, 300, 300)"/>
  <line x1="300" y1="10" x2="300" y2="20" stroke="#d0cec4" stroke-width="1" stroke-linecap="round" transform="rotate(252, 300, 300)"/>
  <line x1="300" y1="10" x2="300" y2="20" stroke="#d0cec4" stroke-width="1" stroke-linecap="round" transform="rotate(253, 300, 300)"/>
  <line x1="300" y1="10" x2="300" y2="20" stroke="#d0cec4" stroke-width="1" stroke-linecap="round" transform="rotate(254, 300, 300)"/>
  <line x1="300" y1="10" x2="300" y2="32" stroke="#d0cec4" stroke-width="1" stroke-linecap="round" transform="rotate(255, 300, 300)"/>
  <line x1="300" y1="10" x2="300" y2="20" stroke="#d0cec4" stroke-width="1" stroke-linecap="round" transform="rotate(256, 300, 300)"/>
  <line x1="300" y1="10" x2="300" y2="20" stroke="#d0cec4" stroke-width="1" stroke-linecap="round" transform="rotate(257, 300, 300)"/>
  <line x1="300" y1="10" x2="300" y2="20" stroke="#d0cec4" stroke-width="1" stroke-linecap="round" transform="rotate(258, 300, 300)"/>
  <line x1="300" y1="10" x2="300" y2="20" stroke="#d0cec4" stroke-width="1" stroke-linecap="round" transform="rotate(259, 300, 300)"/>
  <line x1="300" y1="10" x2="300" y2="45" stroke="#d0cec4" stroke-width="1" stroke-linecap="round" transform="rotate(260, 300, 300)"/>
  <line x1="300" y1="10" x2="300" y2="20" stroke="#d0cec4" stroke-width="1" stroke-linecap="round" transform="rotate(261, 300, 300)"/>
  <line x1="300" y1="10" x2="300" y2="20" stroke="#d0cec4" stroke-width="1" stroke-linecap="round" transform="rotate(262, 300, 300)"/>
  <line x1="300" y1="10" x2="300" y2="20" stroke="#d0cec4" stroke-width="1" stroke-linecap="round" transform="rotate(263, 300, 300)"/>
  <line x1="300" y1="10" x2="300" y2="20" stroke="#d0cec4" stroke-width="1" stroke-linecap="round" transform="rotate(264, 300, 300)"/>
  <line x1="300" y1="10" x2="300" y2="32" stroke="#d0cec4" stroke-width="1" stroke-linecap="round" transform="rotate(265, 300, 300)"/>
  <line x1="300" y1="10" x2="300" y2="20" stroke="#d0cec4" stroke-width="1" stroke-linecap="round" transform="rotate(266, 300, 300)"/>
  <line x1="300" y1="10" x2="300" y2="20" stroke="#d0cec4" stroke-width="1" stroke-linecap="round" transform="rotate(267, 300, 300)"/>
  <line x1="300" y1="10" x2="300" y2="20" stroke="#d0cec4" stroke-width="1" stroke-linecap="round" transform="rotate(268, 300, 300)"/>
  <line x1="300" y1="10" x2="300" y2="20" stroke="#d0cec4" stroke-width="1" stroke-linecap="round" transform="rotate(269, 300, 300)"/>
  <line x1="300" y1="10" x2="300" y2="45" stroke="#d0cec4" stroke-width="1" stroke-linecap="round" transform="rotate(270, 300, 300)"/>
  <line x1="300" y1="10" x2="300" y2="20" stroke="#d0cec4" stroke-width="1" stroke-linecap="round" transform="rotate(271, 300, 300)"/>
  <line x1="300" y1="10" x2="300" y2="20" stroke="#d0cec4" stroke-width="1" stroke-linecap="round" transform="rotate(272, 300, 300)"/>
  <line x1="300" y1="10" x2="300" y2="20" stroke="#d0cec4" stroke-width="1" stroke-linecap="round" transform="rotate(273, 300, 300)"/>
  <line x1="300" y1="10" x2="300" y2="20" stroke="#d0cec4" stroke-width="1" stroke-linecap="round" transform="rotate(274, 300, 300)"/>
  <line x1="300" y1="10" x2="300" y2="32" stroke="#d0cec4" stroke-width="1" stroke-linecap="round" transform="rotate(275, 300, 300)"/>
  <line x1="300" y1="10" x2="300" y2="20" stroke="#d0cec4" stroke-width="1" stroke-linecap="round" transform="rotate(276, 300, 300)"/>
  <line x1="300" y1="10" x2="300" y2="20" stroke="#d0cec4" stroke-width="1" stroke-linecap="round" transform="rotate(277, 300, 300)"/>
  <line x1="300" y1="10" x2="300" y2="20" stroke="#d0cec4" stroke-width="1" stroke-linecap="round" transform="rotate(278, 300, 300)"/>
  <line x1="300" y1="10" x2="300" y2="20" stroke="#d0cec4" stroke-width="1" stroke-linecap="round" transform="rotate(279, 300, 300)"/>
  <line x1="300" y1="10" x2="300" y2="45" stroke="#d0cec4" stroke-width="1" stroke-linecap="round" transform="rotate(280, 300, 300)"/>
  <line x1="300" y1="10" x2="300" y2="20" stroke="#d0cec4" stroke-width="1" stroke-linecap="round" transform="rotate(281, 300, 300)"/>
  <line x1="300" y1="10" x2="300" y2="20" stroke="#d0cec4" stroke-width="1" stroke-linecap="round" transform="rotate(282, 300, 300)"/>
  <line x1="300" y1="10" x2="300" y2="20" stroke="#d0cec4" stroke-width="1" stroke-linecap="round" transform="rotate(283, 300, 300)"/>
  <line x1="300" y1="10" x2="300" y2="20" stroke="#d0cec4" stroke-width="1" stroke-linecap="round" transform="rotate(284, 300, 300)"/>
  <line x1="300" y1="10" x2="300" y2="32" stroke="#d0cec4" stroke-width="1" stroke-linecap="round" transform="rotate(285, 300, 300)"/>
  <line x1="300" y1="10" x2="300" y2="20" stroke="#d0cec4" stroke-width="1" stroke-linecap="round" transform="rotate(286, 300, 300)"/>
  <line x1="300" y1="10" x2="300" y2="20" stroke="#d0cec4" stroke-width="1" stroke-linecap="round" transform="rotate(287, 300, 300)"/>
  <line x1="300" y1="10" x2="300" y2="20" stroke="#d0cec4" stroke-width="1" stroke-linecap="round" transform="rotate(288, 300, 300)"/>
  <line x1="300" y1="10" x2="300" y2="20" stroke="#d0cec4" stroke-width="1" stroke-linecap="round" transform="rotate(289, 300, 300)"/>
  <line x1="300" y1="10" x2="300" y2="45" stroke="#d0cec4" stroke-width="1" stroke-linecap="round" transform="rotate(290, 300, 300)"/>
  <line x1="300" y1="10" x2="300" y2="20" stroke="#d0cec4" stroke-width="1" stroke-linecap="round" transform="rotate(291, 300, 300)"/>
  <line x1="300" y1="10" x2="300" y2="20" stroke="#d0cec4" stroke-width="1" stroke-linecap="round" transform="rotate(292, 300, 300)"/>
  <line x1="300" y1="10" x2="300" y2="20" stroke="#d0cec4" stroke-width="1" stroke-linecap="round" transform="rotate(293, 300, 300)"/>
  <line x1="300" y1="10" x2="300" y2="20" stroke="#d0cec4" stroke-width="1" stroke-linecap="round" transform="rotate(294, 300, 300)"/>
  <line x1="300" y1="10" x2="300" y2="32" stroke="#d0cec4" stroke-width="1" stroke-linecap="round" transform="rotate(295, 300, 300)"/>
  <line x1="300" y1="10" x2="300" y2="20" stroke="#d0cec4" stroke-width="1" stroke-linecap="round" transform="rotate(296, 300, 300)"/>
  <line x1="300" y1="10" x2="300" y2="20" stroke="#d0cec4" stroke-width="1" stroke-linecap="round" transform="rotate(297, 300, 300)"/>
  <line x1="300" y1="10" x2="300" y2="20" stroke="#d0cec4" stroke-width="1" stroke-linecap="round" transform="rotate(298, 300, 300)"/>
  <line x1="300" y1="10" x2="300" y2="20" stroke="#d0cec4" stroke-width="1" stroke-linecap="round" transform="rotate(299, 300, 300)"/>
  <line x1="300" y1="10" x2="300" y2="45" stroke="#d0cec4" stroke-width="1" stroke-linecap="round" transform="rotate(300, 300, 300)"/>
  <line x1="300" y1="10" x2="300" y2="20" stroke="#d0cec4" stroke-width="1" stroke-linecap="round" transform="rotate(301, 300, 300)"/>
  <line x1="300" y1="10" x2="300" y2="20" stroke="#d0cec4" stroke-width="1" stroke-linecap="round" transform="rotate(302, 300, 300)"/>
  <line x1="300" y1="10" x2="300" y2="20" stroke="#d0cec4" stroke-width="1" stroke-linecap="round" transform="rotate(303, 300, 300)"/>
  <line x1="300" y1="10" x2="300" y2="20" stroke="#d0cec4" stroke-width="1" stroke-linecap="round" transform="rotate(304, 300, 300)"/>
  <line x1="300" y1="10" x2="300" y2="32" stroke="#d0cec4" stroke-width="1" stroke-linecap="round" transform="rotate(305, 300, 300)"/>
  <line x1="300" y1="10" x2="300" y2="20" stroke="#d0cec4" stroke-width="1" stroke-linecap="round" transform="rotate(306, 300, 300)"/>
  <line x1="300" y1="10" x2="300" y2="20" stroke="#d0cec4" stroke-width="1" stroke-linecap="round" transform="rotate(307, 300, 300)"/>
  <line x1="300" y1="10" x2="300" y2="20" stroke="#d0cec4" stroke-width="1" stroke-linecap="round" transform="rotate(308, 300, 300)"/>
  <line x1="300" y1="10" x2="300" y2="20" stroke="#d0cec4" stroke-width="1" stroke-linecap="round" transform="rotate(309, 300, 300)"/>
  <line x1="300" y1="10" x2="300" y2="45" stroke="#d0cec4" stroke-width="1" stroke-linecap="round" transform="rotate(310, 300, 300)"/>
  <line x1="300" y1="10" x2="300" y2="20" stroke="#d0cec4" stroke-width="1" stroke-linecap="round" transform="rotate(311, 300, 300)"/>
  <line x1="300" y1="10" x2="300" y2="20" stroke="#d0cec4" stroke-width="1" stroke-linecap="round" transform="rotate(312, 300, 300)"/>
  <line x1="300" y1="10" x2="300" y2="20" stroke="#d0cec4" stroke-width="1" stroke-linecap="round" transform="rotate(313, 300, 300)"/>
  <line x1="300" y1="10" x2="300" y2="20" stroke="#d0cec4" stroke-width="1" stroke-linecap="round" transform="rotate(314, 300, 300)"/>
  <line x1="300" y1="10" x2="300" y2="32" stroke="#d0cec4" stroke-width="1" stroke-linecap="round" transform="rotate(315, 300, 300)"/>
  <line x1="300" y1="10" x2="300" y2="20" stroke="#d0cec4" stroke-width="1" stroke-linecap="round" transform="rotate(316, 300, 300)"/>
  <line x1="300" y1="10" x2="300" y2="20" stroke="#d0cec4" stroke-width="1" stroke-linecap="round" transform="rotate(317, 300, 300)"/>
  <line x1="300" y1="10" x2="300" y2="20" stroke="#d0cec4" stroke-width="1" stroke-linecap="round" transform="rotate(318, 300, 300)"/>
  <line x1="300" y1="10" x2="300" y2="20" stroke="#d0cec4" stroke-width="1" stroke-linecap="round" transform="rotate(319, 300, 300)"/>
  <line x1="300" y1="10" x2="300" y2="45" stroke="#d0cec4" stroke-width="1" stroke-linecap="round" transform="rotate(320, 300, 300)"/>
  <line x1="300" y1="10" x2="300" y2="20" stroke="#d0cec4" stroke-width="1" stroke-linecap="round" transform="rotate(321, 300, 300)"/>
  <line x1="300" y1="10" x2="300" y2="20" stroke="#d0cec4" stroke-width="1" stroke-linecap="round" transform="rotate(322, 300, 300)"/>
  <line x1="300" y1="10" x2="300" y2="20" stroke="#d0cec4" stroke-width="1" stroke-linecap="round" transform="rotate(323, 300, 300)"/>
  <line x1="300" y1="10" x2="300" y2="20" stroke="#d0cec4" stroke-width="1" stroke-linecap="round" transform="rotate(324, 300, 300)"/>
  <line x1="300" y1="10" x2="300" y2="32" stroke="#d0cec4" stroke-width="1" stroke-linecap="round" transform="rotate(325, 300, 300)"/>
  <line x1="300" y1="10" x2="300" y2="20" stroke="#d0cec4" stroke-width="1" stroke-linecap="round" transform="rotate(326, 300, 300)"/>
  <line x1="300" y1="10" x2="300" y2="20" stroke="#d0cec4" stroke-width="1" stroke-linecap="round" transform="rotate(327, 300, 300)"/>
  <line x1="300" y1="10" x2="300" y2="20" stroke="#d0cec4" stroke-width="1" stroke-linecap="round" transform="rotate(328, 300, 300)"/>
  <line x1="300" y1="10" x2="300" y2="20" stroke="#d0cec4" stroke-width="1" stroke-linecap="round" transform="rotate(329, 300, 300)"/>
  <line x1="300" y1="10" x2="300" y2="45" stroke="#d0cec4" stroke-width="1" stroke-linecap="round" transform="rotate(330, 300, 300)"/>
  <line x1="300" y1="10" x2="300" y2="20" stroke="#d0cec4" stroke-width="1" stroke-linecap="round" transform="rotate(331, 300, 300)"/>
  <line x1="300" y1="10" x2="300" y2="20" stroke="#d0cec4" stroke-width="1" stroke-linecap="round" transform="rotate(332, 300, 300)"/>
  <line x1="300" y1="10" x2="300" y2="20" stroke="#d0cec4" stroke-width="1" stroke-linecap="round" transform="rotate(333, 300, 300)"/>
  <line x1="300" y1="10" x2="300" y2="20" stroke="#d0cec4" stroke-width="1" stroke-linecap="round" transform="rotate(334, 300, 300)"/>
  <line x1="300" y1="10" x2="300" y2="32" stroke="#d0cec4" stroke-width="1" stroke-linecap="round" transform="rotate(335, 300, 300)"/>
  <line x1="300" y1="10" x2="300" y2="20" stroke="#d0cec4" stroke-width="1" stroke-linecap="round" transform="rotate(336, 300, 300)"/>
  <line x1="300" y1="10" x2="300" y2="20" stroke="#d0cec4" stroke-width="1" stroke-linecap="round" transform="rotate(337, 300, 300)"/>
  <line x1="300" y1="10" x2="300" y2="20" stroke="#d0cec4" stroke-width="1" stroke-linecap="round" transform="rotate(338, 300, 300)"/>
  <line x1="300" y1="10" x2="300" y2="20" stroke="#d0cec4" stroke-width="1" stroke-linecap="round" transform="rotate(339, 300, 300)"/>
  <line x1="300" y1="10" x2="300" y2="45" stroke="#d0cec4" stroke-width="1" stroke-linecap="round" transform="rotate(340, 300, 300)"/>
  <line x1="300" y1="10" x2="300" y2="20" stroke="#d0cec4" stroke-width="1" stroke-linecap="round" transform="rotate(341, 300, 300)"/>
  <line x1="300" y1="10" x2="300" y2="20" stroke="#d0cec4" stroke-width="1" stroke-linecap="round" transform="rotate(342, 300, 300)"/>
  <line x1="300" y1="10" x2="300" y2="20" stroke="#d0cec4" stroke-width="1" stroke-linecap="round" transform="rotate(343, 300, 300)"/>
  <line x1="300" y1="10" x2="300" y2="20" stroke="#d0cec4" stroke-width="1" stroke-linecap="round" transform="rotate(344, 300, 300)"/>
  <line x1="300" y1="10" x2="300" y2="32" stroke="#d0cec4" stroke-width="1" stroke-linecap="round" transform="rotate(345, 300, 300)"/>
  <line x1="300" y1="10" x2="300" y2="20" stroke="#d0cec4" stroke-width="1" stroke-linecap="round" transform="rotate(346, 300, 300)"/>
  <line x1="300" y1="10" x2="300" y2="20" stroke="#d0cec4" stroke-width="1" stroke-linecap="round" transform="rotate(347, 300, 300)"/>
  <line x1="300" y1="10" x2="300" y2="20" stroke="#d0cec4" stroke-width="1" stroke-linecap="round" transform="rotate(348, 300, 300)"/>
  <line x1="300" y1="10" x2="300" y2="20" stroke="#d0cec4" stroke-width="1" stroke-linecap="round" transform="rotate(349, 300, 300)"/>
  <line x1="300" y1="10" x2="300" y2="45" stroke="#d0cec4" stroke-width="1" stroke-linecap="round" transform="rotate(350, 300, 300)"/>
  <line x1="300" y1="10" x2="300" y2="20" stroke="#d0cec4" stroke-width="1" stroke-linecap="round" transform="rotate(351, 300, 300)"/>
  <line x1="300" y1="10" x2="300" y2="20" stroke="#d0cec4" stroke-width="1" stroke-linecap="round" transform="rotate(352, 300, 300)"/>
  <line x1="300" y1="10" x2="300" y2="20" stroke="#d0cec4" stroke-width="1" stroke-linecap="round" transform="rotate(353, 300, 300)"/>
  <line x1="300" y1="10" x2="300" y2="20" stroke="#d0cec4" stroke-width="1" stroke-linecap="round" transform="rotate(354, 300, 300)"/>
  <line x1="300" y1="10" x2="300" y2="32" stroke="#d0cec4" stroke-width="1" stroke-linecap="round" transform="rotate(355, 300, 300)"/>
  <line x1="300" y1="10" x2="300" y2="20" stroke="#d0cec4" stroke-width="1" stroke-linecap="round" transform="rotate(356, 300, 300)"/>
  <line x1="300" y1="10" x2="300" y2="20" stroke="#d0cec4" stroke-width="1" stroke-linecap="round" transform="rotate(357, 300, 300)"/>
  <line x1="300" y1="10" x2="300" y2="20" stroke="#d0cec4" stroke-width="1" stroke-linecap="round" transform="rotate(358, 300, 300)"/>
  <line x1="300" y1="10" x2="300" y2="20" stroke="#d0cec4" stroke-width="1" stroke-linecap="round" transform="rotate(359, 300, 300)"/>
</svg>