<svg enable-background="new 0 0 512 512" viewBox="0 0 512 512" xmlns="http://www.w3.org/2000/svg"><g fill="#d97757"><path d="m484.5 124.8c-8.4-11.5-18.6-21.6-30.2-29.9l-21.2 21.1c4.6 5 8.7 10.4 12.1 16.3 9.7 16.5 14.6 35.6 15.1 54.7.7 20-3.6 39.8-12.3 57.7-26.9 53.6-89.4 78.8-146 58.9 1.2 1.1 2.4 2.2 3.4 3.3 8 8 13.9 17.9 17.2 28.8 3.5 12 3.7 24.7.6 36.7-3 11.2-8.8 21.4-16.8 29.8s-17.9 14.7-28.8 18.5c-11.9 4.1-24.6 5.2-37 3.2 1.6.8 3.2 1.5 4.8 2.1 13.1 5.1 27.4 6.6 41.3 4.5 13.1-2 25.5-7.3 36-15.4 10-7.8 17.7-18.2 22.2-30.1 4.7-13 5.1-27.1 1-40.3-3.9-12-11.1-22.6-20.8-30.7 8.9 2.7 18 4.5 27.2 5.5 16.5 1.7 33.1.8 49.2-2.9 15.2-3.4 29.7-9.2 43-17.3 8.2-4.9 15.8-10.7 22.8-17.2 13.7-12.7 24.3-28.2 31.3-45.5 7.4-18.6 9.8-38.8 7.2-58.6-2.6-19.2-9.9-37.5-21.3-53.2z"/><path d="m387.7 69.6c-19.8-2.3-39.8-.6-58.9 4.9-18.2 5.2-35.2 14-49.9 25.9-14.5 11.6-26.3 26.1-34.6 42.7-4.5 9.2-8.6 18-11.5 27.8-2.9 10.2-5.4 20.4-7.4 30.8s-2.6 21.9-3.7 32.5-1.6 21.1-2 31.8c-.4 10.8-2 22.2-3 32.9-.9 10.5-2.3 21-4 31.4-1.4 9.7-3.9 19.3-7.3 28.5-3.2 8.3-6.1 15.5-11.2 22.8-10.3 14.7-24.5 26.8-41.6 32.7-16.9 5.9-35.3 4.8-51.4-3-4.2-2-8.1-4.5-11.8-7.2l-19.4 19.2c11.1 6.2 23 10.9 35.3 13.9 27 6.6 55.3 5.6 81.8-2.9 12.5-4 24.5-9.8 35.4-17 10.7-7.2 20.4-15.8 28.7-25.5 8.5-10 15.3-21.3 20.4-33.4 5.4-12.8 9-26.2 11.9-39.7 1.5-7 2.8-14 3.9-21.1.3-1.8 1.1-7.9 1.1-7.9s7.6.9 11 1c13.9.5 27.8-1.3 41.1-5.4 12.4-3.8 24.1-9.6 34.7-17.2 10.1-7.3 19-16.2 26.4-26.2-7.6-4.8-16.6-7.1-25.6-6.5-8.1.6-15.8 3.4-22.2 8.3-3.3 2.5-6.1 5.7-9.2 8.5-3.2 2.9-6.5 5.5-10 7.9-13.1 9.2-28.4 14.8-44.4 16.3.6-5.3 1.1-10.7 1.4-16 .8-10.9 1-21.8 1.4-32.7.3-7.3.8-14.5 1.6-21.8 1.3-12.7 3.2-25.3 5.8-37.7 1.1-6 2.8-11.9 5-17.6 2.3-5.6 5-10.9 8.1-16 9.6-15.9 23.5-29.4 40.7-36.7 16.6-7.1 35.3-7.3 52-.5 5.7 2.4 11 5.4 16 9.1l19.4-19.4c-16.7-9.5-35-15.3-54-17.5z"/><path d="m15.8 366.3c5.6 11.7 13 22.5 21.9 32 6 6.3 12.6 12 19.7 17l21.1-21.1c-5.5-5.9-10.2-12.4-14-19.5-9-16.6-13.3-35.6-13.4-54.4-.2-19.7 4.3-39.2 13.3-56.7 27.5-52.4 89.2-76.7 145-57.1-1.2-1.1-2.4-2.2-3.5-3.3-8.1-8.1-14-18.2-17.3-29.2-3.5-12.2-3.6-25.1-.2-37.2 3.2-11.1 9-21.2 17-29.4s17.8-14.4 28.6-18.1c11.8-4 24.4-5.1 36.7-3.1-1.6-.8-3.3-1.5-4.9-2.1-13.1-5.1-27.3-6.6-41.2-4.5-13.1 2-25.6 7.3-36.1 15.4-10 7.8-17.7 18.2-22.2 30.1-4.8 13-5.1 27.2-1 40.4 3.9 12 11.1 22.6 20.8 30.6-6.4-1.9-13-3.4-19.7-4.5-14.1-2.2-28.5-2.4-42.7-.6-13.5 1.7-26.6 5.3-39.1 10.6-12.1 5.1-23.4 12-33.7 20.2-10 8.1-18.8 17.7-26 28.3-7.4 10.9-13 23-16.5 35.7-7 26.8-4.5 55.4 7.4 80.5z"/></g></svg>
