<svg fill="none" viewBox="0 0 100 100" xmlns="http://www.w3.org/2000/svg"><g stroke="#b8922a"><circle cx="50" cy="50" r="44" stroke-width="1.2"/><circle cx="50" cy="50" r="30" stroke-width=".9"/><circle cx="50" cy="50" r="16" stroke-width=".7"/><g opacity=".55" stroke-width=".75"><path d="m50 6v14"/><path d="m50 6v14" transform="matrix(.8660254 .5 -.5 .8660254 31.69873 -18.30127)"/><path d="m50 6v14" transform="matrix(.5 .8660254 -.8660254 .5 68.30127 -18.30127)"/><path d="m50 6v14" transform="matrix(0 1 -1 0 100 0)"/><path d="m50 6v14" transform="matrix(-.5 .8660254 -.8660254 -.5 118.30127 31.69873)"/><path d="m50 6v14" transform="matrix(-.8660254 .5 -.5 -.8660254 118.30127 68.30127)"/><path d="m50 6v14" transform="matrix(-1 0 -0 -1 100 100)"/><path d="m50 6v14" transform="matrix(-.8660254 -.5 .5 -.8660254 68.30127 118.30127)"/><path d="m50 6v14" transform="matrix(-.5 -.8660254 .8660254 -.5 31.69873 118.30127)"/><path d="m50 6v14" transform="matrix(-0 -1 1 -0 0 100)"/><path d="m50 6v14" transform="matrix(.5 -.8660254 .8660254 .5 -18.30127 68.30127)"/><path d="m50 6v14" transform="matrix(.8660254 -.5 .5 .8660254 -18.30127 31.69873)"/></g><g opacity=".45" stroke-width=".7"><path d="m50 34v-14"/><path d="m50 34v-14" transform="matrix(.8660254 .5 -.5 .8660254 31.69873 -18.30127)"/><path d="m50 34v-14" transform="matrix(.5 .8660254 -.8660254 .5 68.30127 -18.30127)"/><path d="m50 34v-14" transform="matrix(0 1 -1 0 100 0)"/><path d="m50 34v-14" transform="matrix(-.5 .8660254 -.8660254 -.5 118.30127 31.69873)"/><path d="m50 34v-14" transform="matrix(-.8660254 .5 -.5 -.8660254 118.30127 68.30127)"/><path d="m50 34v-14" transform="matrix(-1 0 -0 -1 100 100)"/><path d="m50 34v-14" transform="matrix(-.8660254 -.5 .5 -.8660254 68.30127 118.30127)"/><path d="m50 34v-14" transform="matrix(-.5 -.8660254 .8660254 -.5 31.69873 118.30127)"/><path d="m50 34v-14" transform="matrix(-0 -1 1 -0 0 100)"/><path d="m50 34v-14" transform="matrix(.5 -.8660254 .8660254 .5 -18.30127 68.30127)"/><path d="m50 34v-14" transform="matrix(.8660254 -.5 .5 .8660254 -18.30127 31.69873)"/></g><path d="m72 11.82a44 44 0 0 0 -44 0" stroke-linecap="round" stroke-width="2.2"/></g><circle cx="50" cy="50" fill="#b8922a" r="2.2"/><circle cx="28" cy="11.82" fill="#b8922a" r="2.8"/></svg>
