<svg viewBox="0 0 100 100" xmlns="http://www.w3.org/2000/svg"><g stroke="#b8975a"><circle cx="62.7" cy="38" fill="none" r="33.2" stroke-width="1.2"/><circle cx="62.7" cy="38" fill="none" r="19.5" stroke-dasharray="2.5 2.5" stroke-width=".8"/><g fill="none" opacity=".6"><path d="m62.7 4.8v13.7" stroke-width=".8"/><path d="m79.3 9.3-6.8 11.8" stroke-width=".7"/><path d="m91.4 21.4-11.8 6.9" stroke-width=".7"/><path d="m95.9 38h-13.7" stroke-width=".8"/><path d="m91.4 54.6-11.8-6.8" stroke-width=".7"/><path d="m79.3 66.8-6.8-11.9" stroke-width=".7"/><path d="m62.7 71.2v-13.6" stroke-width=".8"/><path d="m46.1 66.8 6.8-11.9" stroke-width=".7"/><path d="m33.9 54.6 11.9-6.8" stroke-width=".7"/><path d="m29.5 38h13.7" stroke-width=".8"/><g stroke-width=".7"><path d="m33.9 21.4 11.9 6.9"/><path d="m46.1 9.3 6.8 11.8"/></g></g><circle cx="62.7" cy="4.8" fill="#b8975a" fill-opacity=".2" r="3.4" stroke-width="1.1"/></g><circle cx="62.7" cy="4.8" fill="#b8975a" r="1.6"/><circle cx="23.6" cy="79" fill="none" r="19.5" stroke="#b8975a" stroke-width="1.1"/><circle cx="23.6" cy="79" fill="#b8975a" r="2.1"/><path d="m23.6 79 39.1-41" fill="none" opacity=".4" stroke="#b8975a" stroke-dasharray="2.5 2" stroke-width=".6"/></svg>
