<svg fill="none" viewBox="0 0 100 100" xmlns="http://www.w3.org/2000/svg"><g stroke="#b8975a"><circle cx="50" cy="50" r="44" stroke-width="1.2"/><circle cx="50" cy="50" r="32" stroke-width=".8"/><g opacity=".55" stroke-width=".75"><path d="m50 6v12"/><path d="m50 6v12" transform="matrix(.8660254 .5 -.5 .8660254 31.69873 -18.30127)"/><path d="m50 6v12" transform="matrix(.5 .8660254 -.8660254 .5 68.30127 -18.30127)"/><path d="m50 6v12" transform="matrix(0 1 -1 0 100 0)"/><path d="m50 6v12" transform="matrix(-.5 .8660254 -.8660254 -.5 118.30127 31.69873)"/><path d="m50 6v12" transform="matrix(-.8660254 .5 -.5 -.8660254 118.30127 68.30127)"/><path d="m50 6v12" transform="matrix(-1 0 -0 -1 100 100)"/><path d="m50 6v12" transform="matrix(-.8660254 -.5 .5 -.8660254 68.30127 118.30127)"/><path d="m50 6v12" transform="matrix(-.5 -.8660254 .8660254 -.5 31.69873 118.30127)"/><path d="m50 6v12" transform="matrix(-0 -1 1 -0 0 100)"/><path d="m50 6v12" transform="matrix(.5 -.8660254 .8660254 .5 -18.30127 68.30127)"/><path d="m50 6v12" transform="matrix(.8660254 -.5 .5 .8660254 -18.30127 31.69873)"/></g></g><circle cx="50" cy="50" fill="#b8975a" r="2.2"/></svg>
