<svg viewBox="0 0 100 100" xmlns="http://www.w3.org/2000/svg" xmlns:xlink="http://www.w3.org/1999/xlink"><clipPath id="a"><circle cx="37.3" cy="37.3" r="35.2"/></clipPath><clipPath id="b"><circle cx="37.3" cy="37.3" r="35.2"/></clipPath><clipPath id="c"><circle cx="62.7" cy="62.7" r="35.2"/></clipPath><clipPath id="d"><circle cx="62.7" cy="62.7" r="35.2"/></clipPath><circle cx="37.3" cy="37.3" fill="none" r="35.9" stroke="#b8922a" stroke-width="1.1"/><g clip-path="url(#a)"><circle cx="37.3" cy="37.3" fill="none" r="23.1" stroke="#b8922a" stroke-width=".7"/></g><g clip-path="url(#b)"><g fill="none" opacity=".6" stroke="#b8922a" stroke-width=".7"><path d="m62.7 11.9-9.1 9.1"/><path d="m72 28-12.4 3.3"/><path d="m72 46.6-12.4-3.3"/><path d="m62.7 62.7-9.1-9.1"/><path d="m46.6 72-3.3-12.4"/><path d="m28 72 3.3-12.4"/><path d="m11.9 62.7 9.1-9.1"/><path d="m2.6 46.6 12.4-3.3"/><path d="m2.6 28 12.4 3.3"/><path d="m11.9 11.9 9.1 9.1"/><path d="m28 2.6 3.3 12.4"/><path d="m46.6 2.6-3.3 12.4"/></g></g><circle cx="37.3" cy="37.3" fill="#b8922a" r="2.6"/><circle cx="62.7" cy="62.7" fill="none" r="35.9" stroke="#b8922a" stroke-width="1.1"/><g clip-path="url(#c)"><circle cx="62.7" cy="62.7" fill="none" r="23.1" stroke="#b8922a" stroke-width=".7"/></g><g clip-path="url(#d)"><g fill="none" opacity=".6" stroke="#b8922a" stroke-width=".7"><path d="m88.1 37.3-9.1 9.1"/><path d="m97.4 53.4-12.4 3.3"/><path d="m97.4 72-12.4-3.3"/><path d="m88.1 88.1-9.1-9.1"/><path d="m72 97.4-3.3-12.4"/><path d="m53.4 97.4 3.3-12.4"/><path d="m37.3 88.1 9.1-9.1"/><path d="m28 72 12.4-3.3"/><path d="m28 53.4 12.4 3.3"/><path d="m37.3 37.3 9.1 9.1"/><path d="m53.4 28 3.3 12.4"/><path d="m72 28-3.3 12.4"/></g></g><circle cx="62.7" cy="62.7" fill="#b8922a" r="2.6"/><g fill="none"><path d="m72 28c5.1 19.1-6.2 38.8-25.4 44-6.1 1.6-12.5 1.6-18.6 0 19.1 5.1 38.8-6.2 44-25.4 1.6-6.1 1.6-12.5 0-18.6"/><path d="m72 28c5.1 19.1-6.2 38.8-25.4 44-6.1 1.6-12.5 1.6-18.6 0" stroke="#b8922a" stroke-width="1.1"/><path d="m72 28c-19.1-5.1-38.8 6.2-44 25.4-1.6 6.1-1.6 12.5 0 18.6" stroke="#b8922a" stroke-width="1.1"/></g></svg>