<svg viewBox="0 0 1440 1024" xmlns="http://www.w3.org/2000/svg"><g fill-rule="evenodd"><path d="m-217.6 475.8c91.8-72 225.5-29.4 341.2-44.7 116.4-15.5 248.7-115.8 343.1-46.1 102.9 76 44.7 246.8 90.3 366.3 29.8 78.2 90.5 136.2 129.5 210.2 57.9 110 169.7 208.2 155.9 331.8-13.5 121.3-103.4 264.3-224.2 281.4-142 20-232.7-221-374.1-197-151.7 25.7-172.7 330.2-325.9 315.7-128.6-12.2-110.9-230.7-128.2-358.8-12.3-90.2 65.9-176.2 44.2-264.6-26.4-107.2-167.2-163.5-176.7-273.5-10.2-116.3 33-248.8 124.9-320.8z" fill="#d9b057" opacity=".2"/><path d="m1436.5 256.9c111.8 57.5 266.4 26.6 338.7 129.1 98.4 139.6 186.7 342.9 90.6 479.4s-313 65-482.1 76.7c-141.2 9.8-307 85-409.3-14.8-101.2-98.8 15.5-265.6-17.4-401.5-36.2-150-258-280-178.7-409.8 78.1-127.9 289.4-48.7 439.2-16.6 91 19.5 135.8 114.8 218.9 157.5z" fill="#8f84c0" opacity=".2"/><path d="m380 780c70-120 200-200 340-220 150-22 310 20 420 120 115 107 155 270 145 410-10 145-80 290-195 365-120 78-285 80-415 35-145-48-255-165-305-305-52-142-42-290 10-405z" fill="#d97757" opacity=".2"/></g></svg>